<svg width="1088" height="142" viewBox="0 0 1088 142" fill="none" xmlns="http://www.w3.org/2000/svg">
<path d="M39 0.99999V-9.53674e-06H38.0863L38.0041 0.909942L39 0.99999ZM58 0.99999L58.9961 1.08822L59.0925 -9.53674e-06H58V0.99999ZM45.6 141V142H46.5153L46.5961 141.088L45.6 141ZM12.4 141L11.4039 141.088L11.4847 142H12.4V141ZM0 0.99999V-9.53674e-06H-1.09249L-0.9961 1.08822L0 0.99999ZM19 0.99999L19.9959 0.909942L19.9137 -9.53674e-06H19V0.99999ZM29 111.6L28.0041 111.69L29.9959 111.69L29 111.6ZM39 1.99999H58V-9.53674e-06H39V1.99999ZM57.0039 0.911764L44.6039 140.912L46.5961 141.088L58.9961 1.08822L57.0039 0.911764ZM45.6 140H12.4V142H45.6V140ZM13.3961 140.912L0.9961 0.911764L-0.9961 1.08822L11.4039 141.088L13.3961 140.912ZM0 1.99999H19V-9.53674e-06H0V1.99999ZM18.0041 1.09004L28.0041 111.69L29.9959 111.51L19.9959 0.909942L18.0041 1.09004ZM29.9959 111.69L39.9959 1.09004L38.0041 0.909942L28.0041 111.51L29.9959 111.69ZM104.961 141H103.961V142H104.961V141ZM104.961 19.6H105.961V18.6H104.961V19.6ZM101.961 19.6L100.967 19.4931L100.848 20.6H101.961V19.6ZM103.961 0.99999V-9.53674e-06H103.063L102.967 0.89308L103.961 0.99999ZM123.961 0.99999H124.961V-9.53674e-06H123.961V0.99999ZM123.961 141V142H124.961V141H123.961ZM105.961 141V19.6H103.961V141H105.961ZM104.961 18.6H101.961V20.6H104.961V18.6ZM102.955 19.7069L104.955 1.1069L102.967 0.89308L100.967 19.4931L102.955 19.7069ZM103.961 1.99999H123.961V-9.53674e-06H103.961V1.99999ZM122.961 0.99999V141H124.961V0.99999H122.961ZM123.961 140H104.961V142H123.961V140ZM169.938 19.6H168.938V20.6H169.938V19.6ZM169.938 0.99999V-9.53674e-06H168.938V0.99999H169.938ZM224.938 0.99999H225.938V-9.53674e-06H224.938V0.99999ZM224.938 19.6V20.6H225.938V19.6H224.938ZM206.938 19.6V18.6H205.938V19.6H206.938ZM206.938 141V142H207.938V141H206.938ZM187.938 141H186.938V142H187.938V141ZM187.938 19.6H188.938V18.6H187.938V19.6ZM170.938 19.6V0.99999H168.938V19.6H170.938ZM169.938 1.99999H224.938V-9.53674e-06H169.938V1.99999ZM223.938 0.99999V19.6H225.938V0.99999H223.938ZM224.938 18.6H206.938V20.6H224.938V18.6ZM205.938 19.6V141H207.938V19.6H205.938ZM206.938 140H187.938V142H206.938V140ZM188.938 141V19.6H186.938V141H188.938ZM187.938 18.6H169.938V20.6H187.938V18.6ZM283.969 141V142H284.881L284.965 141.091L283.969 141ZM264.969 141L263.973 140.911L263.876 142H264.969V141ZM275.769 19.6L276.765 19.6886L276.862 18.6H275.769V19.6ZM272.169 19.6L271.174 19.4931L271.055 20.6H272.169V19.6ZM274.169 0.99999V-9.53674e-06H273.271L273.174 0.89308L274.169 0.99999ZM310.769 0.99999L311.765 0.911764L311.684 -9.53674e-06H310.769V0.99999ZM323.169 141V142H324.261L324.165 140.912L323.169 141ZM304.169 141L303.173 141.091L303.256 142H304.169V141ZM301.969 117L302.965 116.909L302.881 116H301.969V117ZM286.169 117V116H285.256L285.173 116.909L286.169 117ZM287.769 98.4L286.773 98.3084L286.673 99.4H287.769V98.4ZM300.369 98.4V99.4H301.462L301.365 98.3113L300.369 98.4ZM294.169 28.8L295.165 28.7113L293.173 28.7084L294.169 28.8ZM283.969 140H264.969V142H283.969V140ZM265.965 141.089L276.765 19.6886L274.773 19.5114L263.973 140.911L265.965 141.089ZM275.769 18.6H272.169V20.6H275.769V18.6ZM273.163 19.7069L275.163 1.1069L273.174 0.89308L271.174 19.4931L273.163 19.7069ZM274.169 1.99999H310.769V-9.53674e-06H274.169V1.99999ZM309.773 1.08822L322.173 141.088L324.165 140.912L311.765 0.911764L309.773 1.08822ZM323.169 140H304.169V142H323.169V140ZM305.165 140.909L302.965 116.909L300.973 117.091L303.173 141.091L305.165 140.909ZM301.969 116H286.169V118H301.969V116ZM285.173 116.909L282.973 140.909L284.965 141.091L287.165 117.091L285.173 116.909ZM287.769 99.4H300.369V97.4H287.769V99.4ZM301.365 98.3113L295.165 28.7113L293.173 28.8887L299.373 98.4887L301.365 98.3113ZM293.173 28.7084L286.773 98.3084L288.765 98.4916L295.165 28.8916L293.173 28.7084ZM415.878 136L416.571 136.721L416.578 136.714L416.585 136.707L415.878 136ZM374.278 136L373.571 136.707L373.578 136.714L373.585 136.721L374.278 136ZM374.278 6.2L374.971 6.92083L374.978 6.91403L374.985 6.9071L374.278 6.2ZM415.878 6.2L415.171 6.9071L415.178 6.91403L415.185 6.92083L415.878 6.2ZM421.078 51.6V52.6H422.078V51.6H421.078ZM402.078 51.6H401.078V52.6H402.078V51.6ZM402.078 80H403.078V79H402.078V80ZM394.278 80L393.282 79.9143L393.188 81H394.278V80ZM395.878 61.4V60.4H394.96L394.882 61.3143L395.878 61.4ZM421.078 61.4H422.078V60.4H421.078V61.4ZM420.078 122.4C420.078 127.776 418.423 132.041 415.171 135.293L416.585 136.707C420.267 133.026 422.078 128.224 422.078 122.4H420.078ZM415.185 135.279C411.935 138.404 407.665 140 402.278 140V142C408.091 142 412.888 140.263 416.571 136.721L415.185 135.279ZM402.278 140H387.878V142H402.278V140ZM387.878 140C382.491 140 378.221 138.404 374.971 135.279L373.585 136.721C377.268 140.263 382.065 142 387.878 142V140ZM374.985 135.293C371.733 132.041 370.078 127.776 370.078 122.4H368.078C368.078 128.224 369.89 133.026 373.571 136.707L374.985 135.293ZM370.078 122.4V19.6H368.078V122.4H370.078ZM370.078 19.6C370.078 14.2234 371.733 10.0344 374.971 6.92083L373.585 5.47916C369.89 9.03226 368.078 13.7766 368.078 19.6H370.078ZM374.985 6.9071C378.237 3.65509 382.502 1.99999 387.878 1.99999V-9.53674e-06C382.054 -9.53674e-06 377.252 1.81156 373.571 5.49289L374.985 6.9071ZM387.878 1.99999H402.278V-9.53674e-06H387.878V1.99999ZM402.278 1.99999C407.654 1.99999 411.919 3.65509 415.171 6.9071L416.585 5.49289C412.904 1.81156 408.102 -9.53674e-06 402.278 -9.53674e-06V1.99999ZM415.185 6.92083C418.423 10.0344 420.078 14.2234 420.078 19.6H422.078C422.078 13.7766 420.266 9.03226 416.571 5.47916L415.185 6.92083ZM420.078 19.6V51.6H422.078V19.6H420.078ZM421.078 50.6H402.078V52.6H421.078V50.6ZM403.078 51.6V20.6H401.078V51.6H403.078ZM403.078 20.6C403.078 20.1125 402.956 19.5632 402.535 19.1429C402.115 18.7225 401.566 18.6 401.078 18.6V20.6C401.12 20.6 401.151 20.6026 401.171 20.6056C401.191 20.6085 401.2 20.6114 401.199 20.6112C401.198 20.6109 401.189 20.6074 401.173 20.5981C401.165 20.5935 401.157 20.5878 401.148 20.5807C401.139 20.5737 401.13 20.5658 401.121 20.5571C401.112 20.5484 401.104 20.5394 401.097 20.5303C401.09 20.5213 401.085 20.5128 401.08 20.5051C401.071 20.4896 401.067 20.4796 401.067 20.4787C401.067 20.4781 401.07 20.4867 401.073 20.507C401.075 20.5275 401.078 20.5579 401.078 20.6H403.078ZM401.078 18.6H389.078V20.6H401.078V18.6ZM389.078 18.6C388.591 18.6 388.041 18.7225 387.621 19.1429C387.201 19.5632 387.078 20.1125 387.078 20.6H389.078C389.078 20.5579 389.081 20.5275 389.084 20.507C389.087 20.4867 389.09 20.4781 389.089 20.4787C389.089 20.4796 389.086 20.4896 389.076 20.5051C389.072 20.5128 389.066 20.5213 389.059 20.5303C389.052 20.5394 389.044 20.5484 389.035 20.5571C389.027 20.5658 389.018 20.5737 389.008 20.5807C388.999 20.5878 388.991 20.5935 388.983 20.5981C388.968 20.6074 388.958 20.6109 388.957 20.6112C388.956 20.6114 388.965 20.6085 388.985 20.6056C389.006 20.6026 389.036 20.6 389.078 20.6V18.6ZM387.078 20.6V121.4H389.078V20.6H387.078ZM387.078 121.4C387.078 121.887 387.201 122.437 387.621 122.857C388.041 123.277 388.591 123.4 389.078 123.4V121.4C389.036 121.4 389.006 121.397 388.985 121.394C388.965 121.392 388.956 121.389 388.957 121.389C388.958 121.389 388.968 121.393 388.983 121.402C388.991 121.406 388.999 121.412 389.008 121.419C389.018 121.426 389.027 121.434 389.035 121.443C389.044 121.452 389.052 121.461 389.059 121.47C389.066 121.479 389.072 121.487 389.076 121.495C389.086 121.51 389.089 121.52 389.089 121.521C389.09 121.522 389.087 121.513 389.084 121.493C389.081 121.472 389.078 121.442 389.078 121.4H387.078ZM389.078 123.4H401.078V121.4H389.078V123.4ZM401.078 123.4C401.566 123.4 402.115 123.277 402.535 122.857C402.956 122.437 403.078 121.887 403.078 121.4H401.078C401.078 121.442 401.075 121.472 401.073 121.493C401.07 121.513 401.067 121.522 401.067 121.521C401.067 121.52 401.071 121.51 401.08 121.495C401.085 121.487 401.09 121.479 401.097 121.47C401.104 121.461 401.112 121.452 401.121 121.443C401.13 121.434 401.139 121.426 401.148 121.419C401.157 121.412 401.165 121.406 401.173 121.402C401.189 121.393 401.198 121.389 401.199 121.389C401.2 121.389 401.191 121.392 401.171 121.394C401.151 121.397 401.12 121.4 401.078 121.4V123.4ZM403.078 121.4V80H401.078V121.4H403.078ZM402.078 79H394.278V81H402.078V79ZM395.274 80.0857L396.874 61.4857L394.882 61.3143L393.282 79.9143L395.274 80.0857ZM395.878 62.4H421.078V60.4H395.878V62.4ZM420.078 61.4V122.4H422.078V61.4H420.078ZM515.416 122.4L516.412 122.486L516.505 121.4H515.416V122.4ZM513.816 141V142H514.733L514.812 141.086L513.816 141ZM470.016 141H469.016V142H470.016V141ZM470.016 19.6H471.016V18.6H470.016V19.6ZM467.016 19.6L466.021 19.4931L465.902 20.6H467.016V19.6ZM469.016 0.99999V-9.53674e-06H468.117L468.021 0.89308L469.016 0.99999ZM515.416 0.99999L516.41 1.1069L516.529 -9.53674e-06H515.416V0.99999ZM513.416 19.6V20.6H514.314L514.41 19.7069L513.416 19.6ZM489.016 19.6V18.6H488.016V19.6H489.016ZM489.016 61.6H488.016V62.6H489.016V61.6ZM511.416 61.6L512.41 61.7069L512.529 60.6H511.416V61.6ZM509.416 80.2V81.2H510.314L510.41 80.3069L509.416 80.2ZM489.016 80.2V79.2H488.016V80.2H489.016ZM489.016 122.4H488.016V123.4H489.016V122.4ZM514.419 122.314L512.819 140.914L514.812 141.086L516.412 122.486L514.419 122.314ZM513.816 140H470.016V142H513.816V140ZM471.016 141V19.6H469.016V141H471.016ZM470.016 18.6H467.016V20.6H470.016V18.6ZM468.01 19.7069L470.01 1.1069L468.021 0.89308L466.021 19.4931L468.01 19.7069ZM469.016 1.99999H515.416V-9.53674e-06H469.016V1.99999ZM514.421 0.89308L512.421 19.4931L514.41 19.7069L516.41 1.1069L514.421 0.89308ZM513.416 18.6H489.016V20.6H513.416V18.6ZM488.016 19.6V61.6H490.016V19.6H488.016ZM489.016 62.6H511.416V60.6H489.016V62.6ZM510.421 61.4931L508.421 80.0931L510.41 80.3069L512.41 61.7069L510.421 61.4931ZM509.416 79.2H489.016V81.2H509.416V79.2ZM488.016 80.2V122.4H490.016V80.2H488.016ZM489.016 123.4H515.416V121.4H489.016V123.4ZM658.273 101H659.273V100H658.273V101ZM668.273 86.2H669.273V85.5493L668.679 85.2857L668.273 86.2ZM652.473 79.2L652.879 78.2857L652.835 78.2664L652.79 78.2513L652.473 79.2ZM647.473 77.2L647.026 78.0944L647.049 78.1059L647.073 78.1162L647.473 77.2ZM641.673 72.6L640.893 73.2247L640.905 73.2401L640.918 73.2549L641.673 72.6ZM644.473 5.39999L645.167 6.12083L645.174 6.11403L645.181 6.1071L644.473 5.39999ZM682.073 5.39999L681.366 6.1071L681.373 6.11403L681.38 6.12083L682.073 5.39999ZM687.273 48.4L687.19 49.3965L688.273 49.4877V48.4H687.273ZM668.273 46.8H667.273V47.7193L668.19 47.7965L668.273 46.8ZM658.273 61.6H657.273V62.2507L657.868 62.5143L658.273 61.6ZM674.073 68.6L674.48 67.6862L674.479 67.6857L674.073 68.6ZM684.673 75.2L683.893 75.8247L683.905 75.8401L683.918 75.8549L684.673 75.2ZM682.073 136.8L682.767 137.521L682.774 137.514L682.781 137.507L682.073 136.8ZM644.473 136.8L643.766 137.507L643.773 137.514L643.78 137.521L644.473 136.8ZM639.273 101V100H638.273V101H639.273ZM657.273 101V122.2H659.273V101H657.273ZM657.273 122.2C657.273 122.687 657.396 123.237 657.816 123.657C658.237 124.077 658.786 124.2 659.273 124.2V122.2C659.231 122.2 659.201 122.197 659.18 122.194C659.16 122.192 659.152 122.189 659.152 122.189C659.153 122.189 659.163 122.193 659.179 122.202C659.186 122.206 659.195 122.212 659.204 122.219C659.213 122.226 659.222 122.234 659.231 122.243C659.239 122.252 659.247 122.261 659.254 122.27C659.261 122.279 659.267 122.287 659.272 122.295C659.281 122.31 659.284 122.32 659.285 122.321C659.285 122.322 659.282 122.313 659.279 122.293C659.276 122.272 659.273 122.242 659.273 122.2H657.273ZM659.273 124.2H667.273V122.2H659.273V124.2ZM667.273 124.2C667.761 124.2 668.31 124.077 668.731 123.657C669.151 123.237 669.273 122.687 669.273 122.2H667.273C667.273 122.242 667.271 122.272 667.268 122.293C667.265 122.313 667.262 122.322 667.262 122.321C667.263 122.32 667.266 122.31 667.275 122.295C667.28 122.287 667.286 122.279 667.293 122.27C667.3 122.261 667.308 122.252 667.316 122.243C667.325 122.234 667.334 122.226 667.343 122.219C667.352 122.212 667.361 122.206 667.368 122.202C667.384 122.193 667.394 122.189 667.395 122.189C667.395 122.189 667.387 122.192 667.366 122.194C667.346 122.197 667.315 122.2 667.273 122.2V124.2ZM669.273 122.2V86.2H667.273V122.2H669.273ZM668.679 85.2857L652.879 78.2857L652.068 80.1143L667.868 87.1143L668.679 85.2857ZM652.79 78.2513C651.633 77.8657 649.999 77.2133 647.874 76.2838L647.073 78.1162C649.215 79.0534 650.914 79.7343 652.157 80.1487L652.79 78.2513ZM647.921 76.3056C645.917 75.3038 644.086 73.8566 642.429 71.9451L640.918 73.2549C642.728 75.3434 644.763 76.9628 647.026 78.0944L647.921 76.3056ZM642.454 71.9753C641.039 70.2063 640.273 67.7195 640.273 64.4H638.273C638.273 68.0138 639.108 70.9937 640.893 73.2247L642.454 71.9753ZM640.273 64.4V18.8H638.273V64.4H640.273ZM640.273 18.8C640.273 13.4234 641.928 9.23438 645.167 6.12083L643.78 4.67916C640.085 8.23226 638.273 12.9766 638.273 18.8H640.273ZM645.181 6.1071C648.433 2.85509 652.698 1.19999 658.073 1.19999V-0.800011C652.249 -0.800011 647.448 1.01155 643.766 4.69289L645.181 6.1071ZM658.073 1.19999H668.473V-0.800011H658.073V1.19999ZM668.473 1.19999C673.849 1.19999 678.114 2.85509 681.366 6.1071L682.781 4.69289C679.099 1.01155 674.298 -0.800011 668.473 -0.800011V1.19999ZM681.38 6.12083C684.618 9.23438 686.273 13.4234 686.273 18.8H688.273C688.273 12.9766 686.462 8.23226 682.767 4.67916L681.38 6.12083ZM686.273 18.8V48.4H688.273V18.8H686.273ZM687.357 47.4035L668.357 45.8035L668.19 47.7965L687.19 49.3965L687.357 47.4035ZM669.273 46.8V19.8H667.273V46.8H669.273ZM669.273 19.8C669.273 19.3125 669.151 18.7632 668.731 18.3429C668.31 17.9225 667.761 17.8 667.273 17.8V19.8C667.315 19.8 667.346 19.8027 667.366 19.8056C667.387 19.8085 667.395 19.8114 667.395 19.8112C667.394 19.8109 667.384 19.8074 667.368 19.7981C667.361 19.7935 667.352 19.7878 667.343 19.7808C667.334 19.7737 667.325 19.7658 667.316 19.7571C667.308 19.7484 667.3 19.7394 667.293 19.7303C667.286 19.7213 667.28 19.7128 667.275 19.7051C667.266 19.6896 667.263 19.6797 667.262 19.6787C667.262 19.6781 667.265 19.6867 667.268 19.707C667.271 19.7275 667.273 19.7579 667.273 19.8H669.273ZM667.273 17.8H659.273V19.8H667.273V17.8ZM659.273 17.8C658.786 17.8 658.237 17.9225 657.816 18.3429C657.396 18.7632 657.273 19.3125 657.273 19.8H659.273C659.273 19.7579 659.276 19.7275 659.279 19.707C659.282 19.6867 659.285 19.6781 659.285 19.6787C659.284 19.6797 659.281 19.6896 659.272 19.7051C659.267 19.7128 659.261 19.7213 659.254 19.7303C659.247 19.7394 659.239 19.7484 659.231 19.7571C659.222 19.7658 659.213 19.7737 659.204 19.7808C659.195 19.7878 659.186 19.7935 659.179 19.7981C659.163 19.8074 659.153 19.8109 659.152 19.8112C659.152 19.8114 659.16 19.8085 659.18 19.8056C659.201 19.8027 659.231 19.8 659.273 19.8V17.8ZM657.273 19.8V61.6H659.273V19.8H657.273ZM657.868 62.5143L673.668 69.5143L674.479 67.6857L658.679 60.6857L657.868 62.5143ZM673.667 69.5138C674.87 70.0483 676.539 70.7825 678.673 71.7162L679.474 69.8838C677.342 68.9508 675.677 68.2184 674.48 67.6862L673.667 69.5138ZM678.673 71.7162C680.643 72.5782 682.383 73.9383 683.893 75.8247L685.454 74.5753C683.763 72.4617 681.77 70.8884 679.474 69.8838L678.673 71.7162ZM683.918 75.8549C685.45 77.623 686.273 80.098 686.273 83.4H688.273C688.273 79.7686 687.363 76.777 685.429 74.5451L683.918 75.8549ZM686.273 83.4V123.2H688.273V83.4H686.273ZM686.273 123.2C686.273 128.576 684.618 132.841 681.366 136.093L682.781 137.507C686.462 133.826 688.273 129.024 688.273 123.2H686.273ZM681.38 136.079C678.13 139.204 673.861 140.8 668.473 140.8V142.8C674.286 142.8 679.083 141.063 682.767 137.521L681.38 136.079ZM668.473 140.8H658.073V142.8H668.473V140.8ZM658.073 140.8C652.686 140.8 648.416 139.204 645.167 136.079L643.78 137.521C647.464 141.063 652.261 142.8 658.073 142.8V140.8ZM645.181 136.093C641.929 132.841 640.273 128.576 640.273 123.2H638.273C638.273 129.024 640.085 133.826 643.766 137.507L645.181 136.093ZM640.273 123.2V101H638.273V123.2H640.273ZM639.273 102H658.273V100H639.273V102ZM733.375 19.6H732.375V20.6H733.375V19.6ZM733.375 0.99999V-9.53674e-06H732.375V0.99999H733.375ZM788.375 0.99999H789.375V-9.53674e-06H788.375V0.99999ZM788.375 19.6V20.6H789.375V19.6H788.375ZM770.375 19.6V18.6H769.375V19.6H770.375ZM770.375 141V142H771.375V141H770.375ZM751.375 141H750.375V142H751.375V141ZM751.375 19.6H752.375V18.6H751.375V19.6ZM734.375 19.6V0.99999H732.375V19.6H734.375ZM733.375 1.99999H788.375V-9.53674e-06H733.375V1.99999ZM787.375 0.99999V19.6H789.375V0.99999H787.375ZM788.375 18.6H770.375V20.6H788.375V18.6ZM769.375 19.6V141H771.375V19.6H769.375ZM770.375 140H751.375V142H770.375V140ZM752.375 141V19.6H750.375V141H752.375ZM751.375 18.6H733.375V20.6H751.375V18.6ZM874.861 79.2L873.903 78.9133L873.861 79.0536V79.2H874.861ZM874.861 141V142H875.861V141H874.861ZM855.861 141H854.861V142H855.861V141ZM855.861 79.2H856.861V79.0536L856.819 78.9133L855.861 79.2ZM832.461 0.99999V-9.53674e-06H831.118L831.503 1.28666L832.461 0.99999ZM851.461 0.99999L852.419 0.712266L852.205 -9.53674e-06H851.461V0.99999ZM865.461 47.6L864.503 47.8877L865.468 51.0985L866.42 47.8839L865.461 47.6ZM879.261 0.99999V-9.53674e-06H878.514L878.302 0.716042L879.261 0.99999ZM898.261 0.99999L899.219 1.28666L899.604 -9.53674e-06H898.261V0.99999ZM873.861 79.2V141H875.861V79.2H873.861ZM874.861 140H855.861V142H874.861V140ZM856.861 141V79.2H854.861V141H856.861ZM856.819 78.9133L833.419 0.713317L831.503 1.28666L854.903 79.4867L856.819 78.9133ZM832.461 1.99999H851.461V-9.53674e-06H832.461V1.99999ZM850.503 1.28772L864.503 47.8877L866.419 47.3123L852.419 0.712266L850.503 1.28772ZM866.42 47.8839L880.22 1.28394L878.302 0.716042L864.502 47.3161L866.42 47.8839ZM879.261 1.99999H898.261V-9.53674e-06H879.261V1.99999ZM897.303 0.713317L873.903 78.9133L875.819 79.4867L899.219 1.28666L897.303 0.713317ZM996.588 122.4L997.584 122.486L997.677 121.4H996.588V122.4ZM994.987 141V142H995.905L995.984 141.086L994.987 141ZM947.188 141H946.188V142H947.188V141ZM947.188 19.6H948.188V18.6H947.188V19.6ZM944.188 19.6L943.193 19.4931L943.074 20.6H944.188V19.6ZM946.188 0.99999V-9.53674e-06H945.289L945.193 0.89308L946.188 0.99999ZM966.188 0.99999H967.188V-9.53674e-06H966.188V0.99999ZM966.188 122.4H965.188V123.4H966.188V122.4ZM995.591 122.314L993.991 140.914L995.984 141.086L997.584 122.486L995.591 122.314ZM994.987 140H947.188V142H994.987V140ZM948.188 141V19.6H946.188V141H948.188ZM947.188 18.6H944.188V20.6H947.188V18.6ZM945.182 19.7069L947.182 1.1069L945.193 0.89308L943.193 19.4931L945.182 19.7069ZM946.188 1.99999H966.188V-9.53674e-06H946.188V1.99999ZM965.188 0.99999V122.4H967.188V0.99999H965.188ZM966.188 123.4H996.588V121.4H966.188V123.4ZM1087.06 122.4L1088.05 122.486L1088.15 121.4H1087.06V122.4ZM1085.46 141V142H1086.37L1086.45 141.086L1085.46 141ZM1041.66 141H1040.66V142H1041.66V141ZM1041.66 19.6H1042.66V18.6H1041.66V19.6ZM1038.66 19.6L1037.66 19.4931L1037.54 20.6H1038.66V19.6ZM1040.66 0.99999V-9.53674e-06H1039.76L1039.66 0.89308L1040.66 0.99999ZM1087.06 0.99999L1088.05 1.1069L1088.17 -9.53674e-06H1087.06V0.99999ZM1085.06 19.6V20.6H1085.95L1086.05 19.7069L1085.06 19.6ZM1060.66 19.6V18.6H1059.66V19.6H1060.66ZM1060.66 61.6H1059.66V62.6H1060.66V61.6ZM1083.06 61.6L1084.05 61.7069L1084.17 60.6H1083.06V61.6ZM1081.06 80.2V81.2H1081.95L1082.05 80.3069L1081.06 80.2ZM1060.66 80.2V79.2H1059.66V80.2H1060.66ZM1060.66 122.4H1059.66V123.4H1060.66V122.4ZM1086.06 122.314L1084.46 140.914L1086.45 141.086L1088.05 122.486L1086.06 122.314ZM1085.46 140H1041.66V142H1085.46V140ZM1042.66 141V19.6H1040.66V141H1042.66ZM1041.66 18.6H1038.66V20.6H1041.66V18.6ZM1039.65 19.7069L1041.65 1.1069L1039.66 0.89308L1037.66 19.4931L1039.65 19.7069ZM1040.66 1.99999H1087.06V-9.53674e-06H1040.66V1.99999ZM1086.06 0.89308L1084.06 19.4931L1086.05 19.7069L1088.05 1.1069L1086.06 0.89308ZM1085.06 18.6H1060.66V20.6H1085.06V18.6ZM1059.66 19.6V61.6H1061.66V19.6H1059.66ZM1060.66 62.6H1083.06V60.6H1060.66V62.6ZM1082.06 61.4931L1080.06 80.0931L1082.05 80.3069L1084.05 61.7069L1082.06 61.4931ZM1081.06 79.2H1060.66V81.2H1081.06V79.2ZM1059.66 80.2V122.4H1061.66V80.2H1059.66ZM1060.66 123.4H1087.06V121.4H1060.66V123.4Z" fill="white"/>
</svg>
